# File created by Blade
# Date/Time:  Wed Jan 21 18:40:08 2015
# Frame Rate: 120.000 fps
#------------------------------------------------------
:FULLY-SPECIFIED
:DEGREES
3317
root -2.574883 18.256657 -13.158786 102.301650 -37.187687 -4.341614
RightUpLeg -180.693479 9.142356 23.917004
RightLeg 90.982574 -0.000000 -0.000000
RightFoot 2.432257 33.127956 23.974133
RightToeBase 30.253913 -0.000000 -0.000000
LeftUpLeg -121.049440 47.136835 -65.063581
LeftLeg -3.026216 -0.000000 0.000000
LeftFoot 2.711874 -0.915974 -31.912231
LeftToeBase 10.204575 -0.000000 -0.000000
Spine -30.851303 -60.488628 28.091002
RightShoulder -31.933591 -7.878163 -54.845659
RightArm -30.569728 -32.284894 67.205340
RightForeArm 2.033167 -0.000000 -16.517129
RightHand 9.376621 -0.000000 5.568172
RightHandThumb1 -24.326973 -0.000000 -32.862282
LeftShoulder 6.815335 -19.579415 40.052277
LeftArm 74.102350 46.525955 -19.679740
LeftForeArm 38.008430 -0.000000 2.999593
LeftHand -12.233626 -0.000000 19.358318
LeftHandThumb1 -26.253704 0.000000 33.147579
Head -48.560346 -64.430186 41.334207
3318
root -2.570818 18.255627 -13.159037 102.310843 -37.213141 -4.344302
RightUpLeg -180.705441 9.142640 23.895520
RightLeg 90.963133 -0.000000 -0.000000
RightFoot 2.422234 33.116503 23.919949
RightToeBase 30.262119 -0.000000 -0.000000
LeftUpLeg -121.051973 47.150966 -65.062703
LeftLeg -2.977222 -0.000000 0.000000
LeftFoot 2.683717 -0.951181 -32.037703
LeftToeBase 10.227511 -0.000000 -0.000000
Spine -30.833403 -60.472971 28.050947
RightShoulder -31.935529 -7.878078 -54.838595
RightArm -30.575015 -32.125829 67.104775
RightForeArm 2.115282 0.000000 -16.507501
RightHand 9.297323 0.000000 5.499669
RightHandThumb1 -24.326973 -0.000000 -32.862282
LeftShoulder 6.822283 -19.611227 40.067305
LeftArm 74.175883 46.542247 -19.626161
LeftForeArm 37.972418 -0.000000 2.952294
LeftHand -12.208100 0.000000 19.349420
LeftHandThumb1 -26.253704 0.000000 33.147579
Head -48.436027 -64.320184 41.226379
3319
root -2.566151 18.254123 -13.157930 102.304404 -37.227790 -4.332543
RightUpLeg -180.721919 9.139793 23.899909
RightLeg 90.963483 -0.000000 -0.000000
RightFoot 2.382879 33.141067 23.840303
RightToeBase 30.336411 -0.000000 -0.000000
LeftUpLeg -121.037925 47.162597 -65.040720
LeftLeg -2.936527 -0.000000 0.000000
LeftFoot 2.671391 -0.972606 -32.118032
LeftToeBase 10.161565 -0.000000 -0.000000
Spine -30.818188 -60.479007 28.042855
RightShoulder -31.949640 -7.867319 -54.823460
RightArm -30.540202 -31.996283 67.005865
RightForeArm 2.207132 0.000000 -16.552710
RightHand 9.261279 -0.000000 5.436243
RightHandThumb1 -24.326973 -0.000000 -32.862282
LeftShoulder 6.802673 -19.655662 40.081072
LeftArm 74.186818 46.558589 -19.644507
LeftForeArm 37.979825 -0.000000 2.925169
LeftHand -12.186988 -0.000000 19.351296
LeftHandThumb1 -26.253704 0.000000 33.147579
Head -48.403784 -64.249046 41.206746
3320
root -2.564917 18.252909 -13.160439 102.337248 -37.262757 -4.394330
RightUpLeg -180.698596 9.175513 23.849142
RightLeg 90.943319 -0.000000 -0.000000
RightFoot 2.414098 33.121456 23.845831
RightToeBase 30.275073 -0.000000 -0.000000
LeftUpLeg -121.118288 47.209534 -65.110777
LeftLeg -2.867513 -0.000000 0.000000
LeftFoot 2.670512 -0.995327 -32.246400
LeftToeBase 10.106071 -0.000000 -0.000000
Spine -30.771726 -60.448774 27.960319
RightShoulder -31.944349 -7.867265 -54.825098
RightArm -30.531319 -31.976517 67.002618
RightForeArm 2.370433 0.000000 -16.602618
RightHand 9.181421 -0.000000 5.534454
RightHandThumb1 -24.326973 -0.000000 -32.862282
LeftShoulder 6.743992 -19.652229 40.068785
LeftArm 74.250995 46.544148 -19.571546
LeftForeArm 37.995891 -0.000000 2.959527
LeftHand -11.994242 -0.000000 19.094542
LeftHandThumb1 -26.253704 0.000000 33.147579
Head -48.333406 -64.216028 41.137707
3321
root -2.562172 18.251066 -13.160095 102.331680 -37.285271 -4.407177
RightUpLeg -180.691924 9.174513 23.829856
RightLeg 90.938232 -0.000000 -0.000000
RightFoot 2.439109 33.092192 23.892148
RightToeBase 30.326822 -0.000000 -0.000000
LeftUpLeg -121.113477 47.252453 -65.095933
LeftLeg -2.815210 -0.000000 0.000000
LeftFoot 2.644224 -1.012135 -32.357191
LeftToeBase 10.099608 -0.000000 -0.000000
Spine -30.710346 -60.437537 27.887584
RightShoulder -31.938863 -7.901928 -54.780851
RightArm -30.516443 -31.963928 67.013153
RightForeArm 2.471984 -0.000000 -16.623865
RightHand 9.065664 -0.000000 5.623448
RightHandThumb1 -24.326973 -0.000000 -32.862282
LeftShoulder 6.722999 -19.659335 40.060351
LeftArm 74.330423 46.534542 -19.476822
LeftForeArm 38.009320 -0.000000 2.990782
LeftHand -12.131999 -0.000000 19.216039
LeftHandThumb1 -26.253704 0.000000 33.147579
Head -48.303620 -64.192756 41.124713
3322
root -2.559007 18.249259 -13.159025 102.323993 -37.293268 -4.405230
RightUpLeg -180.699245 9.174230 23.831718
RightLeg 90.942054 -0.000000 -0.000000
RightFoot 2.400250 33.101247 23.773362
RightToeBase 30.286338 -0.000000 -0.000000
LeftUpLeg -121.124848 47.268729 -65.086254
LeftLeg -2.766667 -0.000000 0.000000
LeftFoot 2.618251 -1.005760 -32.417127
LeftToeBase 10.073857 -0.000000 -0.000000
Spine -30.677021 -60.434721 27.861684
RightShoulder -31.922103 -7.903929 -54.752083
RightArm -30.556367 -32.037239 67.115767
RightForeArm 2.556029 -0.000000 -16.639605
RightHand 8.841399 -0.000000 5.851439
RightHandThumb1 -24.326973 -0.000000 -32.862282
LeftShoulder 6.713396 -19.667081 40.059933
LeftArm 74.317766 46.516445 -19.480154
LeftForeArm 38.058468 -0.000000 3.035380
LeftHand -12.161600 -0.000000 19.255181
LeftHandThumb1 -26.253704 0.000000 33.147579
Head -48.260264 -64.157420 41.086592
3323
root -2.556151 18.247049 -13.157978 102.299930 -37.306511 -4.394828
RightUpLeg -180.702730 9.155528 23.825838
RightLeg 90.942676 -0.000000 -0.000000
RightFoot 2.544489 33.072806 23.945266
RightToeBase 30.267511 -0.000000 -0.000000
LeftUpLeg -121.086195 47.305104 -65.033266
LeftLeg -2.723899 -0.000000 0.000000
LeftFoot 2.582382 -0.966262 -32.559106
LeftToeBase 10.085907 -0.000000 -0.000000
Spine -30.635261 -60.446671 27.832772
RightShoulder -31.914868 -7.907806 -54.720824
RightArm -30.580456 -32.107227 67.208495
RightForeArm 2.600154 -0.000000 -16.648936
RightHand 8.845690 -0.000000 6.060626
RightHandThumb1 -24.326973 -0.000000 -32.862282
LeftShoulder 6.678066 -19.658148 40.070313
LeftArm 74.369359 46.492268 -19.425494
LeftForeArm 37.992359 -0.000000 3.057819
LeftHand -12.109237 -0.000000 19.276798
LeftHandThumb1 -26.253704 0.000000 33.147579
Head -48.268438 -64.110621 41.078766
3324
root -2.554270 18.245367 -13.158041 102.284704 -37.309484 -4.391066
RightUpLeg -180.704672 9.145987 23.827945
RightLeg 90.946781 -0.000000 -0.000000
RightFoot 2.606941 33.063716 23.985372
RightToeBase 30.232805 -0.000000 -0.000000
LeftUpLeg -121.072707 47.330861 -64.992627
LeftLeg -2.675928 -0.000000 0.000000
LeftFoot 2.558742 -0.967269 -32.583485
LeftToeBase 10.010884 -0.000000 -0.000000
Spine -30.576859 -60.430686 27.787485
RightShoulder -31.908106 -7.924532 -54.696983
RightArm -30.605458 -32.113423 67.273382
RightForeArm 2.556541 -0.000000 -16.613260
RightHand 8.735863 -0.000000 6.093195
RightHandThumb1 -24.326973 -0.000000 -32.862282
LeftShoulder 6.660466 -19.659844 40.078523
LeftArm 74.425393 46.468192 -19.377451
LeftForeArm 37.943410 -0.000000 3.076189
LeftHand -12.111497 -0.000000 19.258949
LeftHandThumb1 -26.253704 0.000000 33.147579
Head -48.287319 -64.095281 41.073758
3325
root -2.553191 18.243461 -13.157487 102.267421 -37.315264 -4.387959
RightUpLeg -180.706618 9.137166 23.828073
RightLeg 90.957030 -0.000000 -0.000000
RightFoot 2.518436 33.067085 23.829698
RightToeBase 30.273161 -0.000000 -0.000000
LeftUpLeg -121.052471 47.357479 -64.959439
LeftLeg -2.643092 -0.000000 0.000000
LeftFoot 2.527017 -0.942557 -32.643479
LeftToeBase 9.978990 -0.000000 -0.000000
Spine -30.491787 -60.414096 27.709744
RightShoulder -31.913025 -7.911244 -54.660333
RightArm -30.625911 -32.070113 67.272562
RightForeArm 2.486491 0.000000 -16.580893
RightHand 9.026439 -0.000000 6.046561
RightHandThumb1 -24.326973 -0.000000 -32.862282
LeftShoulder 6.694312 -19.695026 40.112258
LeftArm 74.333944 46.463488 -19.528241
LeftForeArm 37.986522 -0.000000 3.069261
LeftHand -12.205262 -0.000000 19.386161
LeftHandThumb1 -26.253704 0.000000 33.147579
Head -48.294794 -64.072024 41.094280
3326
root -2.552246 18.240848 -13.157565 102.237443 -37.310824 -4.372941
RightUpLeg -180.707915 9.126195 23.843282
RightLeg 90.971803 -0.000000 -0.000000
RightFoot 2.530364 33.057313 23.798097
RightToeBase 30.250539 -0.000000 -0.000000
LeftUpLeg -121.007776 47.387058 -64.900861
LeftLeg -2.635290 -0.000000 0.000000
LeftFoot 2.499168 -0.914309 -32.671854
LeftToeBase 10.015919 -0.000000 -0.000000
Spine -30.424372 -60.396776 27.666452
RightShoulder -31.922915 -7.911741 -54.660718
RightArm -30.621236 -31.992762 67.264699
RightForeArm 2.392210 -0.000000 -16.533797
RightHand 9.207714 -0.000000 5.920803
RightHandThumb1 -24.326973 -0.000000 -32.862282
LeftShoulder 6.649310 -19.706651 40.094733
LeftArm 74.479256 46.442434 -19.423124
LeftForeArm 37.968990 -0.000000 3.028050
LeftHand -12.146333 -0.000000 19.339663
LeftHandThumb1 -26.253704 0.000000 33.147579
Head -48.323168 -64.043287 41.070762
3327
root -2.551424 18.238739 -13.157059 102.211894 -37.304371 -4.348611
RightUpLeg -180.719832 9.104976 23.859742
RightLeg 90.985716 -0.000000 -0.000000
RightFoot 2.620272 33.082358 23.864409
RightToeBase 30.127709 -0.000000 -0.000000
LeftUpLeg -120.963706 47.399169 -64.851220
LeftLeg -2.639888 -0.000000 0.000000
LeftFoot 2.494966 -0.897326 -32.716396
LeftToeBase 10.039598 -0.000000 -0.000000
Spine -30.367840 -60.373377 27.632588
RightShoulder -31.939608 -7.906089 -54.652414
RightArm -30.601051 -31.895821 67.223888
RightForeArm 2.390391 -0.000000 -16.509296
RightHand 9.179886 -0.000000 5.949300
RightHandThumb1 -24.326973 -0.000000 -32.862282
LeftShoulder 6.641892 -19.711106 40.079489
LeftArm 74.543697 46.401347 -19.399567
LeftForeArm 37.990523 0.000000 3.015496
LeftHand -12.193457 0.000000 19.316697
LeftHandThumb1 -26.253704 0.000000 33.147579
Head -48.380494 -64.025059 41.082666
3328
root -2.551074 18.236167 -13.156324 102.170377 -37.293781 -4.309620
RightUpLeg -180.735600 9.077317 23.887099
RightLeg 91.007008 -0.000000 -0.000000
RightFoot 2.669705 33.073321 23.903614
RightToeBase 30.139149 -0.000000 -0.000000
LeftUpLeg -120.942420 47.387210 -64.844347
LeftLeg -2.657322 -0.000000 0.000000
LeftFoot 2.522905 -0.909016 -32.768457
LeftToeBase 10.027927 -0.000000 -0.000000
Spine -30.304488 -60.358356 27.596540
RightShoulder -31.956781 -7.898397 -54.654197
RightArm -30.565354 -31.762081 67.162285
RightForeArm 2.418168 0.000000 -16.479342
RightHand 8.880887 -0.000000 5.949122
RightHandThumb1 -24.326973 -0.000000 -32.862282
LeftShoulder 6.666423 -19.740011 40.063474
LeftArm 74.600669 46.412619 -19.343929
LeftForeArm 37.922150 -0.000000 3.043005
LeftHand -12.368055 -0.000000 19.363509
LeftHandThumb1 -26.253704 0.000000 33.147579
Head -48.435120 -63.989668 41.089485
